<mxfile host="app.diagrams.net" agent="Mozilla/5.0 (Windows NT 10.0; Win64; x64) AppleWebKit/537.36 (KHTML, like Gecko) Chrome/128.0.0.0 Safari/537.36 OPR/114.0.0.0" version="26.0.6">
  <diagram name="Page-1" id="kLYF4cSdOsvnM0RhAteQ">
    <mxGraphModel dx="1393" dy="755" grid="1" gridSize="10" guides="1" tooltips="1" connect="1" arrows="1" fold="1" page="1" pageScale="1" pageWidth="850" pageHeight="1100" math="0" shadow="0">
      <root>
        <mxCell id="0" />
        <mxCell id="1" parent="0" />
        <mxCell id="wDRm9eci69dv7bYKxMNr-11" style="edgeStyle=orthogonalEdgeStyle;rounded=0;orthogonalLoop=1;jettySize=auto;html=1;" edge="1" parent="1" source="ogwUzt5TBPCE8RQowMsZ-5" target="wDRm9eci69dv7bYKxMNr-5">
          <mxGeometry relative="1" as="geometry" />
        </mxCell>
        <mxCell id="ogwUzt5TBPCE8RQowMsZ-5" value="Game Manager" style="swimlane;fontStyle=1;align=center;verticalAlign=top;childLayout=stackLayout;horizontal=1;startSize=26;horizontalStack=0;resizeParent=1;resizeParentMax=0;resizeLast=0;collapsible=1;marginBottom=0;whiteSpace=wrap;html=1;" parent="1" vertex="1">
          <mxGeometry x="40" y="40" width="210" height="260" as="geometry" />
        </mxCell>
        <mxCell id="ogwUzt5TBPCE8RQowMsZ-6" value="+ Board prefab&lt;div&gt;+ List &amp;lt;prefab for pieces&amp;gt;&lt;/div&gt;&lt;div&gt;+ List &amp;lt;Level SO&amp;gt;&lt;br&gt;&lt;div&gt;+ whitePlayer&lt;/div&gt;&lt;/div&gt;&lt;div&gt;+ blackPlayer&lt;/div&gt;&lt;div&gt;+ activePlayer&lt;/div&gt;&lt;div&gt;+ enum gameState&lt;/div&gt;" style="text;strokeColor=none;fillColor=none;align=left;verticalAlign=top;spacingLeft=4;spacingRight=4;overflow=hidden;rotatable=0;points=[[0,0.5],[1,0.5]];portConstraint=eastwest;whiteSpace=wrap;html=1;" parent="ogwUzt5TBPCE8RQowMsZ-5" vertex="1">
          <mxGeometry y="26" width="210" height="114" as="geometry" />
        </mxCell>
        <mxCell id="ogwUzt5TBPCE8RQowMsZ-7" value="" style="line;strokeWidth=1;fillColor=none;align=left;verticalAlign=middle;spacingTop=-1;spacingLeft=3;spacingRight=3;rotatable=0;labelPosition=right;points=[];portConstraint=eastwest;strokeColor=inherit;" parent="ogwUzt5TBPCE8RQowMsZ-5" vertex="1">
          <mxGeometry y="140" width="210" height="8" as="geometry" />
        </mxCell>
        <mxCell id="ogwUzt5TBPCE8RQowMsZ-8" value="- InstantiateBoard()&lt;div&gt;- GenerateAllPossibleMoves()&lt;/div&gt;&lt;div&gt;- SwitchTurn()&lt;/div&gt;&lt;div&gt;- instantiatePieces()&lt;/div&gt;&lt;div&gt;- IsGameOver()&lt;/div&gt;&lt;div&gt;- OnPieceRemove()&lt;/div&gt;" style="text;strokeColor=none;fillColor=none;align=left;verticalAlign=top;spacingLeft=4;spacingRight=4;overflow=hidden;rotatable=0;points=[[0,0.5],[1,0.5]];portConstraint=eastwest;whiteSpace=wrap;html=1;" parent="ogwUzt5TBPCE8RQowMsZ-5" vertex="1">
          <mxGeometry y="148" width="210" height="112" as="geometry" />
        </mxCell>
        <mxCell id="wDRm9eci69dv7bYKxMNr-1" value="Movement Square" style="swimlane;fontStyle=1;align=center;verticalAlign=top;childLayout=stackLayout;horizontal=1;startSize=26;horizontalStack=0;resizeParent=1;resizeParentMax=0;resizeLast=0;collapsible=1;marginBottom=0;whiteSpace=wrap;html=1;" vertex="1" parent="1">
          <mxGeometry x="500" y="130" width="160" height="60" as="geometry" />
        </mxCell>
        <mxCell id="wDRm9eci69dv7bYKxMNr-2" value="+ Vector2 position" style="text;strokeColor=none;fillColor=none;align=left;verticalAlign=top;spacingLeft=4;spacingRight=4;overflow=hidden;rotatable=0;points=[[0,0.5],[1,0.5]];portConstraint=eastwest;whiteSpace=wrap;html=1;" vertex="1" parent="wDRm9eci69dv7bYKxMNr-1">
          <mxGeometry y="26" width="160" height="26" as="geometry" />
        </mxCell>
        <mxCell id="wDRm9eci69dv7bYKxMNr-3" value="" style="line;strokeWidth=1;fillColor=none;align=left;verticalAlign=middle;spacingTop=-1;spacingLeft=3;spacingRight=3;rotatable=0;labelPosition=right;points=[];portConstraint=eastwest;strokeColor=inherit;" vertex="1" parent="wDRm9eci69dv7bYKxMNr-1">
          <mxGeometry y="52" width="160" height="8" as="geometry" />
        </mxCell>
        <mxCell id="wDRm9eci69dv7bYKxMNr-5" value="Board" style="swimlane;fontStyle=1;align=center;verticalAlign=top;childLayout=stackLayout;horizontal=1;startSize=26;horizontalStack=0;resizeParent=1;resizeParentMax=0;resizeLast=0;collapsible=1;marginBottom=0;whiteSpace=wrap;html=1;" vertex="1" parent="1">
          <mxGeometry x="120" y="420" width="160" height="184" as="geometry" />
        </mxCell>
        <mxCell id="wDRm9eci69dv7bYKxMNr-6" value="+ int boardSize (optional)&lt;div&gt;+&lt;/div&gt;" style="text;strokeColor=none;fillColor=none;align=left;verticalAlign=top;spacingLeft=4;spacingRight=4;overflow=hidden;rotatable=0;points=[[0,0.5],[1,0.5]];portConstraint=eastwest;whiteSpace=wrap;html=1;" vertex="1" parent="wDRm9eci69dv7bYKxMNr-5">
          <mxGeometry y="26" width="160" height="124" as="geometry" />
        </mxCell>
        <mxCell id="wDRm9eci69dv7bYKxMNr-7" value="" style="line;strokeWidth=1;fillColor=none;align=left;verticalAlign=middle;spacingTop=-1;spacingLeft=3;spacingRight=3;rotatable=0;labelPosition=right;points=[];portConstraint=eastwest;strokeColor=inherit;" vertex="1" parent="wDRm9eci69dv7bYKxMNr-5">
          <mxGeometry y="150" width="160" height="8" as="geometry" />
        </mxCell>
        <mxCell id="wDRm9eci69dv7bYKxMNr-8" value="+ method(type): type" style="text;strokeColor=none;fillColor=none;align=left;verticalAlign=top;spacingLeft=4;spacingRight=4;overflow=hidden;rotatable=0;points=[[0,0.5],[1,0.5]];portConstraint=eastwest;whiteSpace=wrap;html=1;" vertex="1" parent="wDRm9eci69dv7bYKxMNr-5">
          <mxGeometry y="158" width="160" height="26" as="geometry" />
        </mxCell>
      </root>
    </mxGraphModel>
  </diagram>
</mxfile>
